<?xml version="1.0" encoding="UTF-8" standalone="no"?>
<!-- Created with Inkscape (http://www.inkscape.org/) -->

<svg
   width="512"
   height="512"
   viewBox="0 0 512 512"
   version="1.1"
   id="svg1"
   inkscape:version="1.3.2 (091e20ef0f, 2023-11-25)"
   sodipodi:docname="logo_canvas_round.svg"
   xmlns:inkscape="http://www.inkscape.org/namespaces/inkscape"
   xmlns:sodipodi="http://sodipodi.sourceforge.net/DTD/sodipodi-0.dtd"
   xmlns:xlink="http://www.w3.org/1999/xlink"
   xmlns="http://www.w3.org/2000/svg"
   xmlns:svg="http://www.w3.org/2000/svg">
  <sodipodi:namedview
     id="namedview1"
     pagecolor="#505050"
     bordercolor="#eeeeee"
     borderopacity="1"
     inkscape:showpageshadow="0"
     inkscape:pageopacity="0"
     inkscape:pagecheckerboard="0"
     inkscape:deskcolor="#505050"
     inkscape:document-units="px"
     inkscape:zoom="0.35355339"
     inkscape:cx="-203.64675"
     inkscape:cy="285.67114"
     inkscape:window-width="2542"
     inkscape:window-height="1387"
     inkscape:window-x="0"
     inkscape:window-y="0"
     inkscape:window-maximized="1"
     inkscape:current-layer="layer1" />
  <defs
     id="defs1">
    <linearGradient
       id="linearGradient9"
       inkscape:collect="always">
      <stop
         style="stop-color:#ffffff;stop-opacity:1;"
         offset="0"
         id="stop9" />
      <stop
         style="stop-color:#ffffff;stop-opacity:0;"
         offset="1"
         id="stop10" />
    </linearGradient>
    <radialGradient
       inkscape:collect="always"
       xlink:href="#linearGradient9"
       id="radialGradient10"
       cx="256"
       cy="256"
       fx="256"
       fy="256"
       r="256"
       gradientUnits="userSpaceOnUse"
       gradientTransform="translate(-608,-127.92287)" />
    <clipPath
       clipPathUnits="userSpaceOnUse"
       id="clipPath10">
      <circle
         style="display:inline;fill:#005a9f;fill-opacity:1;stroke-width:1.13386;stroke-linecap:round;stroke-dashoffset:101.59"
         id="circle11"
         cx="256"
         cy="256"
         r="256" />
    </clipPath>
  </defs>
  <g
     inkscape:label="Ebene 1"
     inkscape:groupmode="layer"
     id="layer1">
    <circle
       style="display:inline;fill:#005a9f;fill-opacity:1;stroke-width:1.13386;stroke-linecap:round;stroke-dashoffset:101.59"
       id="circle8"
       cx="256"
       cy="256"
       r="256" />
    <g
       id="g24"
       transform="matrix(1.0033453,0,0,1.0033453,-998.90036,-718.21897)"
       style="stroke:none;stroke-width:1.00024;stroke-dasharray:none">
      <path
         id="path22"
         style="fill:#ffffff;stroke:none;stroke-width:1.00024;stroke-linecap:round;stroke-dasharray:none;stroke-dashoffset:101.59"
         d="m 231.85446,650.04438 c -36.71962,1.73866 -72.63412,11.36511 -105.30078,28.22461 l 16.85547,29.19531 c 27.5094,-13.9857 57.63152,-22.08496 88.44531,-23.78125 z m -126.25195,39.66601 c -31.029435,19.89953 -57.395393,46.26549 -77.294921,77.29493 l 29.511719,17.03906 C 74.655944,758.13418 96.713932,736.0223 122.58298,719.1225 Z m 125.74414,18.60938 c -25.8225,1.63805 -51.05984,8.40453 -74.23828,19.9043 l 12.66406,21.9375 c 19.29007,-9.37293 40.18533,-14.99542 61.57422,-16.56836 z m -95.49023,32.05859 c -21.5325,14.36089 -39.986992,32.86916 -54.285159,54.44336 l 22.205079,12.82032 c 11.96448,-17.7455 27.1851,-33.06156 44.85547,-45.13672 z m 95.25586,21.63282 c -16.76335,1.42457 -33.14729,5.77621 -48.40821,12.85742 l 11.6836,20.23437 c 11.64524,-5.19443 24.04085,-8.50841 36.72461,-9.81836 z m -69.92188,25.59375 c -13.71737,9.65665 -25.64154,21.63635 -35.23437,35.39843 l 20.40429,11.7793 c 7.39481,-10.28414 16.36422,-19.33858 26.57813,-26.83008 z M 16.868136,787.95649 C 0.00795487,820.623 -9.6191633,856.5375 -11.358426,893.25727 h 34.162109 c 1.609367,-30.75216 9.59615,-60.83362 23.453125,-88.33398 z m 52.648438,28.17187 c -11.368238,23.16816 -18.019176,48.36444 -19.566406,74.125 h 25.685546 c 1.411823,-21.2806 6.831755,-42.10284 15.97461,-61.37109 z m 43.802736,28.44727 c -6.94855,15.24573 -11.18267,31.58732 -12.51172,48.28906 h 23.56836 c 1.21865,-12.57135 4.40531,-24.87311 9.44336,-36.45508 z m -63.328127,70.1582 c 1.627461,25.72775 8.345836,50.87651 19.765625,73.98828 L 92.032199,975.86079 C 82.798076,956.69193 77.259985,935.95423 75.70798,914.73383 Z m -61.349609,2.38867 c 1.7389894,36.72042 11.36611518,72.63561 28.226562,105.3027 l 29.623047,-17.1035 C 32.58446,977.87729 24.531469,947.84286 22.842746,917.1225 Z m 112.207036,0.74414 c 1.40998,16.66631 5.71327,32.95947 12.71679,48.14844 l 20.53516,-11.85547 c -5.09562,-11.51882 -8.35455,-23.76504 -9.6582,-36.29297 z m 45.98632,57.80665 -20.57226,11.87695 c 9.5928,13.67296 21.49163,25.57246 35.16406,35.16606 l 11.87891,-20.5723 c -10.14809,-7.39139 -19.07932,-16.32262 -26.47071,-26.47071 z m 194.19141,0.36718 c -7.4915,10.21391 -16.54594,19.18332 -26.83008,26.57813 l 11.7793,20.4043 c 13.76209,-9.5928 25.74178,-21.517 35.39844,-35.23438 z m -236.7168,20.99805 -22.437497,12.95308 c 14.30162,21.4859 32.730887,39.9152 54.216797,54.2168 l 12.95508,-22.4375 c -17.58958,-11.9677 -32.76594,-27.1433 -44.73438,-44.73238 z m 279.26953,0.41211 c -12.07574,17.67057 -27.39247,32.89117 -45.13867,44.85547 l 12.82031,22.2031 c 21.57401,-14.2976 40.08227,-32.7514 54.44336,-54.2832 z m -188.75976,17.42777 -11.85547,20.5351 c 15.18897,7.0035 31.48213,11.3068 48.14844,12.7168 v -23.5937 c -12.52793,-1.3036 -24.77415,-4.5626 -36.29297,-9.6582 z m 97.75,0.2793 c -11.58198,5.038 -23.88373,8.2247 -36.45508,9.4433 v 23.5703 c 16.70253,-1.3294 33.0448,-5.5642 48.29102,-12.5136 z m -234.457033,11.0078 -29.804688,17.207 c 19.899305,31.0302 46.265279,57.3968 77.294921,77.2969 l 17.20703,-29.8047 c -25.822475,-16.8423 -47.855707,-38.8762 -64.697263,-64.6992 z m 371.742183,0.2285 c -16.8998,25.8691 -39.01167,47.9271 -64.92187,64.7637 l 17.03906,29.5117 c 31.02994,-19.8988 57.39657,-46.2641 77.29688,-77.293 z m -259.63476,27.6562 -12.85938,22.2754 c 23.11117,11.4196 48.25924,18.138 73.98633,19.7657 v -25.7168 c -21.22041,-1.552 -41.9581,-7.0902 -61.12695,-16.3243 z m 146.98047,0.4239 c -19.26839,9.1422 -40.09063,14.5614 -61.3711,15.9726 v 25.6856 c 25.76056,-1.5472 50.95684,-8.1982 74.125,-19.5664 z m -173.54297,48.0136 -17.10352,29.6231 c 32.66651,16.8602 68.58102,26.4873 105.30078,28.2265 v -34.2031 c -30.71956,-1.6884 -60.7533,-9.7407 -88.19726,-23.6465 z m 200.39648,0.2325 c -27.50021,13.8576 -57.58169,21.845 -88.33398,23.455 v 34.1602 c 36.72028,-1.7384 72.63548,-11.3648 105.30273,-28.2246 z"
         sodipodi:nodetypes="cccccccccccccccccccccccccccccccccccccccccccccccccccccccccccccccccccccccccccccccccccccccccccccccccccccccccccccccccccccccc" />
    </g>
    <path
       id="rect24"
       style="fill:#d40000;stroke-width:1.13386;stroke-linecap:round;stroke-dashoffset:101.59"
       d="m 1395.8411,500.06778 h 312.766 v 273.83646 h -312.766 z" />
    <circle
       style="fill:#ffffff;fill-opacity:1;stroke-width:1.13386;stroke-linecap:round;stroke-dashoffset:101.59"
       id="path1"
       cx="-817.84351"
       cy="1091.25"
       r="256" />
    <path
       style="fill:#ffffff;fill-opacity:1;stroke-width:3.43559"
       d="m 0.62305,12.045874 c 1.83407,35.420902 8.25723,75.101187 17.78118,109.844716 3.23377,11.79689 13.37367,43.48031 14.19982,44.36914 0.27875,0.30028 29.94122,-12.00934 45.09888,-18.71459 l 5.17538,-2.28928 -1.74375,-4.67151 C 67.24134,103.36526 54.89884,40.306719 54.81874,6.1366115 L 54.80474,2.0784213e-5 H 27.40214 0 Z M 91.69173,7.045492 c 2.54332,35.219464 7.28616,63.737195 15.4115,92.667614 2.76609,9.848484 9.32366,30.373124 9.89607,30.973624 0.12597,0.12553 5.09116,-1.84216 11.0473,-4.37349 5.95615,-2.53124 15.73747,-6.67924 21.73601,-9.2177 5.99872,-2.53854 13.19521,-5.60925 15.99201,-6.82413 l 5.08552,-2.20866 -4.47485,-14.712172 C 158.33859,66.89635 152.19029,34.261846 150.63902,9.7729809 L 150.02016,0 H 120.60164 91.18301 Z m 94.90189,-2.7272405 c 0.002,11.7808055 5.23909,45.5452635 9.62196,62.0471325 3.76521,14.176676 7.88973,27.273606 8.58899,27.273606 0.35972,0 2.85139,-0.98612 5.53623,-2.191594 2.68483,-1.205971 11.42558,-4.933665 19.42369,-8.285101 7.99811,-3.351603 16.64588,-7.027514 19.21713,-8.168714 l 4.67502,-2.075185 -3.06736,-10.322194 C 246.44756,48.658517 242.39142,28.25608 241.12669,15.000465 240.55401,9.0001458 239.90295,3.1704226 239.67959,2.0455028 L 239.27348,2.0784212e-5 H 212.93325 186.59302 Z M 250.66887,113.10744 c -8.498,3.6605 -19.23434,8.237 -23.85835,10.17018 -4.62403,1.93329 -8.40703,3.86021 -8.40703,4.28234 0,1.43068 10.09826,20.85333 15.64069,30.0827 10.77792,17.94753 30.79329,45.29353 38.14234,52.11145 l 2.17833,2.02101 18.78543,-18.83971 18.78503,-18.83966 -6.54761,-7.84161 c -12.53196,-15.00776 -24.77336,-33.44152 -33.56971,-50.55039 -2.63404,-5.12311 -4.99374,-9.30057 -5.24368,-9.28327 -0.24936,0.0103 -7.40744,3.0264 -15.90544,6.68696 z m -81.3452,34.49708 c -7.24826,3.14236 -18.80243,8.08423 -25.67597,10.98229 -6.87334,2.89796 -12.49715,5.68462 -12.49715,6.19254 0,1.36975 12.61773,26.12766 18.64765,36.59007 14.03063,24.34395 34.38713,52.42228 52.91581,72.98809 l 4.32848,4.80464 20.74582,-20.79025 20.746,-20.79013 -6.95912,-8.10599 c -20.34109,-23.69318 -38.39768,-50.89404 -52.60468,-79.24426 -2.31771,-4.62511 -4.72119,-8.39375 -5.34107,-8.37473 -0.62027,0.0103 -7.0575,2.60549 -14.30577,5.74773 z M 84.7975,183.39238 c -5.24876,2.28119 -15.67823,6.77229 -23.17653,9.98029 -7.4983,3.20795 -13.96639,6.16204 -14.3736,6.56433 -0.99983,0.98722 16.49191,35.54645 26.22853,51.81925 18.70733,31.26542 38.99717,58.88087 62.05532,84.4598 l 6.82416,7.57034 18.93738,-18.92623 c 10.41561,-10.4094 18.9376,-19.26486 18.9376,-19.67874 0,-0.41496 -3.17592,-4.30417 -7.05771,-8.64482 -27.21364,-30.43097 -50.00902,-64.2598 -69.48076,-103.11142 -3.94986,-7.88101 -7.6697,-14.29578 -8.26633,-14.25469 -0.59656,0.0437 -5.37926,1.94063 -10.62806,4.22189 z m 233.57485,35.31569 -18.62366,18.70236 5.45324,5.00678 c 8.37964,7.69343 29.3476,23.16699 42.29666,31.21355 12.33039,7.66197 28.92188,16.81477 29.46736,16.25576 0.37653,-0.3855 9.15107,-20.46286 18.09158,-41.39461 l 3.17113,-7.42444 -9.70355,-5.44078 c -16.41493,-9.20381 -32.72648,-20.44754 -45.55036,-31.39853 -2.71943,-2.32232 -5.17711,-4.22247 -5.46145,-4.22247 -0.28434,0 -8.89771,8.41612 -19.14095,18.70238 z m 102.90384,60.22681 c -5.54403,12.91031 -10.20705,24.01627 -10.36182,24.67993 -0.53208,2.2759 29.70932,11.40641 52.43332,15.83111 11.72232,2.28261 28.04367,4.50633 41.58141,5.66551 l 7.04391,0.60392 V 298.8267 271.93801 l -3.86279,-0.48271 c -2.12435,-0.26635 -8.15727,-0.93149 -13.40596,-1.4799 -16.61789,-1.73538 -39.30669,-6.75025 -55.56345,-12.28097 -3.60764,-1.22704 -6.83476,-2.23138 -7.17168,-2.23138 -0.33753,0 -5.14872,10.56286 -10.69294,23.47304 z m -168.3428,5.21013 -20.44228,20.50118 4.99895,4.52965 c 13.24319,11.99966 35.22474,28.86253 52.26074,40.09116 13.58473,8.95387 47.52695,28.01643 49.88506,28.01643 0.21295,0 1.00538,-1.73876 1.76201,-3.86387 0.75605,-2.125 5.90056,-14.26837 11.43159,-26.98517 5.53143,-12.7168 9.9615,-23.18422 9.84452,-23.261 -0.11198,-0.0657 -4.97195,-2.61893 -10.78932,-5.64952 -22.04633,-11.48533 -51.02621,-31.20657 -69.61448,-47.37365 -4.11452,-3.5785 -7.79895,-6.50638 -8.18766,-6.50638 -0.38932,0 -9.90571,9.22554 -21.14913,20.50117 z m -65.84528,65.82373 -19.02937,19.05033 1.76862,1.96752 c 3.50627,3.90034 25.66617,22.6261 38.12394,32.21604 14.76928,11.36923 41.72577,29.37368 56.91596,38.01455 13.22521,7.52305 36.56328,19.70497 37.75102,19.70497 0.49009,0 2.26412,-3.17064 3.94136,-7.04573 1.67745,-3.87511 5.25509,-12.15942 7.95072,-18.40971 2.69544,-6.25006 6.12051,-14.17359 7.6112,-17.60748 1.49028,-3.43404 2.58785,-6.35327 2.43848,-6.48704 -0.14997,-0.13981 -5.17951,-2.79715 -11.17824,-5.91875 -37.82839,-19.68564 -69.69425,-41.45305 -98.7785,-67.4756 -4.33949,-3.88263 -8.02411,-7.05939 -8.18808,-7.05939 -0.16396,0 -8.86112,8.57265 -19.32711,19.05029 z m 207.72448,-9.73177 c -0.42852,1.12464 -1.39891,3.47727 -2.15795,5.22727 -14.52693,33.50639 -19.62385,45.92986 -19.06137,46.46099 2.06236,1.94791 40.83497,13.82766 57.48904,17.61475 23.00674,5.23127 60.44442,10.40307 75.6772,10.45419 l 5.23869,0.0125 -0.23955,-29.31909 -0.23935,-29.31904 -9.99788,-0.67055 c -29.16024,-1.95835 -67.21699,-9.73127 -94.52401,-19.30596 -4.99875,-1.7527 -9.61017,-3.19102 -10.24743,-3.19602 -0.63707,-0.002 -1.50869,0.91181 -1.93699,2.03632 z m -42.54021,98.65921 c -3.10434,7.36404 -7.93153,18.65213 -10.72673,25.08455 -2.79521,6.43234 -4.95875,11.77406 -4.80758,11.87046 1.79822,1.1471 34.71425,12.47955 42.08349,14.48903 29.76211,8.11579 42.5842,11.03372 64.21123,14.61273 14.95043,2.47423 41.45643,5.39688 58.72878,6.4758 L 512,512.06881 l -0.24095,-27.61867 -0.24095,-27.61853 -13.98144,-0.63448 c -29.22682,-1.3264 -70.69665,-8.76439 -104.62787,-18.76441 -5.11733,-1.50822 -29.74871,-9.84681 -33.62869,-11.3846 -1.04758,-0.41499 -2.67003,2.55919 -7.00792,12.84893 z"
       id="path2"
       inkscape:export-filename="../../../../logo.pdf"
       inkscape:export-xdpi="96"
       inkscape:export-ydpi="96"
       sodipodi:nodetypes="cssscssccccsscssscsscccsssscsscssscccsssssscccsscsssssscccsscsssssscsssscsscsssscssssccsccccccssccscssscscssssscsssssssccsssccsscccccsccccssssccccssscc"
       clip-path="url(#clipPath10)" />
    <g
       id="g6"
       transform="translate(-1073.8435,835.24997)">
      <rect
         style="fill:#000000;fill-opacity:1;stroke-width:0.912312;stroke-linecap:round;stroke-dashoffset:101.59"
         id="rect1"
         width="23.864407"
         height="611.78809"
         x="244.06779"
         y="-49.894043" />
      <rect
         style="fill:#000000;fill-opacity:1;stroke-width:0.912312;stroke-linecap:round;stroke-dashoffset:101.59"
         id="rect2"
         width="23.864407"
         height="611.78809"
         x="337.77029"
         y="-212.19154"
         transform="rotate(30)" />
      <rect
         style="fill:#000000;fill-opacity:1;stroke-width:0.912312;stroke-linecap:round;stroke-dashoffset:101.59"
         id="rect3"
         width="23.864407"
         height="611.78809"
         x="337.77029"
         y="-399.59656"
         transform="rotate(60)" />
      <rect
         style="fill:#000000;fill-opacity:1;stroke-width:0.912312;stroke-linecap:round;stroke-dashoffset:101.59"
         id="rect4"
         width="23.864407"
         height="611.78809"
         x="244.06778"
         y="-561.89404"
         transform="rotate(90)" />
      <rect
         style="fill:#000000;fill-opacity:1;stroke-width:0.912312;stroke-linecap:round;stroke-dashoffset:101.59"
         id="rect5"
         width="23.864407"
         height="611.78809"
         x="81.770294"
         y="-655.5965"
         transform="rotate(120)" />
      <rect
         style="fill:#000000;fill-opacity:1;stroke-width:0.912312;stroke-linecap:round;stroke-dashoffset:101.59"
         id="rect6"
         width="23.864407"
         height="611.78809"
         x="-105.6347"
         y="-655.5965"
         transform="rotate(150)" />
    </g>
    <g
       id="g12"
       transform="translate(-147.52987,742.47781)" />
    <g
       id="g18"
       transform="translate(-759.31796,529.35593)">
      <rect
         style="fill:#000000;fill-opacity:1;stroke-width:0.912312;stroke-linecap:round;stroke-dashoffset:101.59"
         id="rect13"
         width="23.864407"
         height="611.78809"
         x="244.06779"
         y="-49.894043" />
      <rect
         style="fill:#000000;fill-opacity:1;stroke-width:0.912312;stroke-linecap:round;stroke-dashoffset:101.59"
         id="rect14"
         width="23.864407"
         height="611.78809"
         x="337.77029"
         y="-212.19154"
         transform="rotate(30)" />
      <rect
         style="fill:#000000;fill-opacity:1;stroke-width:0.912312;stroke-linecap:round;stroke-dashoffset:101.59"
         id="rect15"
         width="23.864407"
         height="611.78809"
         x="337.77029"
         y="-399.59656"
         transform="rotate(60)" />
      <rect
         style="fill:#000000;fill-opacity:1;stroke-width:0.912312;stroke-linecap:round;stroke-dashoffset:101.59"
         id="rect16"
         width="23.864407"
         height="611.78809"
         x="244.06778"
         y="-561.89404"
         transform="rotate(90)" />
      <rect
         style="fill:#000000;fill-opacity:1;stroke-width:0.912312;stroke-linecap:round;stroke-dashoffset:101.59"
         id="rect17"
         width="23.864407"
         height="611.78809"
         x="81.770294"
         y="-655.5965"
         transform="rotate(120)" />
      <rect
         style="fill:#000000;fill-opacity:1;stroke-width:0.912312;stroke-linecap:round;stroke-dashoffset:101.59"
         id="rect18"
         width="23.864407"
         height="611.78809"
         x="-105.6347"
         y="-655.5965"
         transform="rotate(150)" />
    </g>
    <g
       id="g22"
       transform="translate(23.859375,-78.482422)">
      <path
         id="circle18"
         style="fill:#ffffff;stroke-width:1.13386;stroke-linecap:round;stroke-dashoffset:101.59"
         d="m 255.71875,649.48242 v 33.65039 a 222.09872,222.09872 0 0 1 88.7793,23.75586 L 361.2832,677.81641 A 256,256 0 0 0 255.71875,649.48242 Z m -23.86523,0.5625 a 256,256 0 0 0 -105.30079,28.22461 l 16.85547,29.19531 a 222.09872,222.09872 0 0 1 88.44532,-23.78125 z m -126.25196,39.66602 a 256,256 0 0 0 -77.294919,77.29492 l 29.511718,17.03906 a 222.09872,222.09872 0 0 1 64.763671,-64.92187 z m 276.3418,0.0469 -16.76563,29.03711 a 222.09872,222.09872 0 0 1 65.00196,65.00391 l 29.03906,-16.76563 a 256,256 0 0 0 -77.27539,-77.27539 z m 89.2168,97.9375 -29.07032,16.78516 a 222.09872,222.09872 0 0 1 23.75391,88.77734 h 33.65039 a 256,256 0 0 0 -28.33398,-105.5625 z m -454.292972,0.26172 a 256,256 0 0 0 -28.226563,105.30078 h 34.162109 a 222.09872,222.09872 0 0 1 23.453125,-88.33398 z m -28.226563,129.16602 a 256,256 0 0 0 28.226563,105.30272 l 29.623046,-17.1035 A 222.09872,222.09872 0 0 1 22.841797,917.12305 Z m 476.652345,0 a 222.09872,222.09872 0 0 1 -23.7832,88.44532 l 29.19726,16.8574 A 256,256 0 0 0 498.93359,917.12305 Z M 58.111328,1026.166 28.306641,1043.373 a 256,256 0 0 0 77.294919,77.2969 l 17.20703,-29.8047 A 222.09872,222.09872 0 0 1 58.111328,1026.166 Z m 371.742192,0.2285 a 222.09872,222.09872 0 0 1 -64.92188,64.7637 l 17.03906,29.5117 a 256,256 0 0 0 77.29688,-77.2929 z m -286.19727,76.0938 -17.10352,29.623 a 256,256 0 0 0 105.30079,28.2266 v -34.2031 a 222.09872,222.09872 0 0 1 -88.19727,-23.6465 z m 200.39648,0.2324 a 222.09872,222.09872 0 0 1 -88.33398,23.4551 v 34.1601 a 256,256 0 0 0 105.30273,-28.2246 z" />
      <path
         id="path19"
         style="fill:#ffffff;stroke-width:1.1631;stroke-linecap:round;stroke-dashoffset:101.59"
         d="m 255.82811,707.83544 v 25.30217 a 169.30271,169.30271 0 0 1 61.9181,16.43269 l 12.60601,-21.83612 a 194.78068,194.78068 0 0 0 -74.52411,-19.89874 z m -24.48074,0.48484 a 194.78068,194.78068 0 0 0 -74.23961,19.90476 l 12.6641,21.9363 a 169.30271,169.30271 0 0 1 61.57551,-16.56893 z m 120.22991,31.60719 -12.61603,21.85014 a 169.30271,169.30271 0 0 1 45.34116,45.34317 l 21.85215,-12.61603 a 194.78068,194.78068 0 0 0 -54.57728,-54.57728 z m -215.72063,0.45079 A 194.78068,194.78068 0 0 0 81.571882,794.8213 l 22.204768,12.82039 a 169.30271,169.30271 0 0 1 44.85431,-45.1368 z m 282.4912,75.35355 -21.83612,12.60601 a 169.30271,169.30271 0 0 1 16.43469,61.9161 h 25.30017 a 194.78068,194.78068 0 0 0 -19.89874,-74.52211 z m -348.831015,0.3967 a 194.78068,194.78068 0 0 0 -19.56616,74.12541 h 25.684843 a 169.30271,169.30271 0 0 1 15.973888,-61.37115 z m -19.526089,98.60615 a 194.78068,194.78068 0 0 0 19.766509,73.98718 L 92.032144,975.86138 A 169.30271,169.30271 0 0 1 75.707643,914.73466 Z m 362.498874,0 a 169.30271,169.30271 0 0 1 -16.56892,61.57551 l 21.93629,12.6641 a 194.78068,194.78068 0 0 0 19.90476,-74.23961 z M 104.30958,997.03835 81.872407,1009.991 a 194.78068,194.78068 0 0 0 54.216653,54.2166 l 12.95462,-22.4371 a 169.30271,169.30271 0 0 1 -44.7341,-44.73215 z m 279.26957,0.41272 a 169.30271,169.30271 0 0 1 -45.13881,44.85423 l 12.82039,22.2048 a 194.78068,194.78068 0 0 0 54.44304,-54.2847 z m -213.3585,56.59883 -12.86045,22.2749 a 194.78068,194.78068 0 0 0 73.98717,19.7664 v -25.7168 a 169.30271,169.30271 0 0 1 -61.12672,-16.3245 z m 146.97861,0.4247 a 169.30271,169.30271 0 0 1 -61.37115,15.9719 v 25.6849 a 194.78068,194.78068 0 0 0 74.12541,-19.5662 z" />
      <path
         id="path20"
         style="fill:#ffffff;stroke-width:1.18782;stroke-linecap:round;stroke-dashoffset:101.59"
         d="m 256.11369,761.64968 v 23.31715 a 120.55235,120.55235 0 0 1 36.9113,9.81914 l 11.66676,-20.20914 a 143.97384,143.97384 0 0 0 -48.57806,-12.92715 z m -25.00107,0.36216 a 143.97384,143.97384 0 0 0 -48.40824,12.85757 l 11.68312,20.2337 a 120.55235,120.55235 0 0 1 36.72512,-9.81914 z m 95.22258,25.07064 -11.64016,20.16412 a 120.55235,120.55235 0 0 1 27.03692,27.03692 l 20.16617,-11.6422 A 143.97384,143.97384 0 0 0 326.3352,787.08248 Z m -165.14536,0.52174 a 143.97384,143.97384 0 0 0 -35.23352,35.39926 l 20.40352,11.77929 a 120.55235,120.55235 0 0 1 26.57859,-26.83027 z m 213.2119,56.68464 -20.20915,11.6688 a 120.55235,120.55235 0 0 1 9.8171,36.90722 h 23.31714 a 143.97384,143.97384 0 0 0 -12.92509,-48.57602 z m -261.08202,0.28646 a 143.97384,143.97384 0 0 0 -12.51178,48.28956 h 23.5688 a 120.55235,120.55235 0 0 1 9.44266,-36.45504 z m -12.47087,73.29062 a 143.97384,143.97384 0 0 0 12.7164,48.14839 l 20.53447,-11.85499 a 120.55235,120.55235 0 0 1 -9.65751,-36.2934 z m 262.8437,0 a 120.55235,120.55235 0 0 1 -9.8171,36.72511 l 20.2337,11.68313 a 143.97384,143.97384 0 0 0 12.85553,-48.40824 z m -216.85802,57.80793 -20.57131,11.87546 a 143.97384,143.97384 0 0 0 35.16396,35.16607 l 11.8775,-20.5714 a 120.55235,120.55235 0 0 1 -26.47015,-26.47013 z m 194.19153,0.36625 a 120.55235,120.55235 0 0 1 -26.83026,26.57858 l 11.77929,20.4035 a 143.97384,143.97384 0 0 0 35.39925,-35.23347 z m -146.20683,38.83868 -11.855,20.5345 a 143.97384,143.97384 0 0 0 48.14839,12.7164 v -23.5933 a 120.55235,120.55235 0 0 1 -36.29339,-9.6576 z m 97.74948,0.2783 a 120.55235,120.55235 0 0 1 -36.45502,9.4448 v 23.5687 a 143.97384,143.97384 0 0 0 48.2916,-12.5138 z" />
    </g>
    <circle
       style="display:inline;fill:url(#radialGradient10);stroke-width:1.13386;stroke-linecap:round;stroke-dashoffset:101.59"
       id="circle9"
       cx="-352"
       cy="128.07713"
       r="256" />
    <circle
       style="fill:#ffffff;fill-opacity:1;stroke:none;stroke-width:0.805687;stroke-linecap:round;stroke-dasharray:none;stroke-dashoffset:101.59;stroke-opacity:1"
       id="path8"
       cx="1049"
       cy="177"
       r="107.92287" />
  </g>
</svg>
