<?xml version="1.0" encoding="UTF-8" standalone="no"?>
<!-- Created with Inkscape (http://www.inkscape.org/) -->

<svg
   width="182.43636mm"
   height="166.76723mm"
   viewBox="0 0 182.43636 166.76723"
   version="1.1"
   id="svg1"
   xml:space="preserve"
   inkscape:export-filename="noProjects.svg"
   inkscape:export-xdpi="96"
   inkscape:export-ydpi="96"
   xmlns:inkscape="http://www.inkscape.org/namespaces/inkscape"
   xmlns:sodipodi="http://sodipodi.sourceforge.net/DTD/sodipodi-0.dtd"
   xmlns="http://www.w3.org/2000/svg"
   xmlns:svg="http://www.w3.org/2000/svg"><sodipodi:namedview
     id="namedview1"
     pagecolor="#505050"
     bordercolor="#eeeeee"
     borderopacity="1"
     inkscape:showpageshadow="0"
     inkscape:pageopacity="0"
     inkscape:pagecheckerboard="0"
     inkscape:deskcolor="#505050"
     inkscape:document-units="mm"
     inkscape:zoom="0.52724989"
     inkscape:cx="278.80518"
     inkscape:cy="379.32678"
     inkscape:window-width="1710"
     inkscape:window-height="1027"
     inkscape:window-x="0"
     inkscape:window-y="0"
     inkscape:window-maximized="1"
     inkscape:current-layer="layer1" /><defs
     id="defs1" /><g
     inkscape:label="Ebene 1"
     inkscape:groupmode="layer"
     id="layer1"
     transform="translate(-19.669642,-43.533244)"><path
       id="path1"
       style="fill:#6c757d;fill-opacity:1;stroke-width:0.827908"
       d="m 76.730717,43.533777 c -7.413917,0.042 -15.297099,2.565745 -22.292696,7.194393 -5.13281,3.396129 -8.58372,7.579148 -10.076388,12.213725 -0.394133,1.223747 -0.572304,1.522116 -0.838708,1.404565 -2.02848,-0.895074 -2.809683,-1.039713 -5.595524,-1.036113 -2.484931,0.0032 -3.071058,0.07754 -4.600236,0.582911 -4.946257,1.634659 -9.539131,5.589073 -11.717115,10.08879 -1.2803,2.645086 -1.771234,4.763433 -1.912028,8.253759 -0.182263,4.518156 0.497784,7.338121 2.493388,10.339938 3.577272,5.380974 11.123079,7.039696 18.272787,4.016809 0.276645,-0.11697 0.400981,0.0982 0.61805,1.068152 0.149487,0.667999 0.553653,1.773234 0.898136,2.456184 l 0.626319,1.24178 -0.764812,0.89349 c -0.420676,0.49143 -1.079177,1.53246 -1.463476,2.31303 -0.651368,1.32309 -0.698665,1.57528 -0.698665,3.72381 0,2.00233 0.07058,2.44748 0.536401,3.39411 0.675357,1.37242 2.163053,2.87347 3.383256,3.41322 1.763773,0.78021 2.964033,0.91877 4.74338,0.54777 l 1.615922,-0.33693 0.665075,0.62064 c 0.365977,0.34118 1.010801,0.85301 1.432471,1.1374 1.673266,1.12852 10.685735,8.5338 15.468307,12.70981 1.459617,1.2745 2.956548,2.55641 3.326928,2.84893 0.505463,0.39919 0.867138,1.06804 1.449007,2.68097 1.533418,4.25055 4.030748,9.59809 6.106088,13.07465 1.646268,2.7578 3.180248,4.69157 7.407816,9.33897 12.512834,13.75546 19.0265,20.45426 21.33307,21.93923 3.19198,2.05499 6.83736,5.41059 8.97722,8.26409 0.98366,1.31169 3.60428,5.78216 4.29742,7.3303 0.20253,0.45237 0.30509,0.91089 0.22789,1.01906 -0.30861,0.43197 -3.08513,2.72702 -4.67258,3.8623 -5.9115,4.2277 -11.84723,3.91564 -18.36219,-0.96532 -1.929173,-1.44532 -5.869576,-5.33471 -20.684008,-20.41529 -6.388274,-6.50303 -8.8821,-8.90591 -9.24233,-8.90591 -0.505496,0 -1.175639,0.7302 -1.175639,1.28157 0,0.34417 2.557312,3.01867 11.983764,12.5336 3.529311,3.56244 6.416754,6.61791 6.416663,6.79029 -2.48e-4,0.44914 -1.148625,2.81371 -2.053105,4.22765 -1.030811,1.61141 -1.640634,2.82963 -2.13372,4.26279 -0.575113,1.6716 -1.527764,6.30381 -1.377176,6.69623 0.069,0.1798 0.388046,0.41787 0.709,0.52865 0.723806,0.24984 1.309045,-0.0237 1.449524,-0.67696 1.06045,-4.93146 1.497159,-6.29338 2.654102,-8.28529 0.657499,-1.13201 1.514291,-2.7114 1.904276,-3.50934 l 0.709001,-1.45056 3.723804,3.64887 c 7.055434,6.91367 10.864234,9.08575 16.433624,9.37152 4.3268,0.22201 7.28722,-0.87244 11.97239,-4.42557 2.76925,-2.10013 2.77918,-2.10569 3.61425,-1.88153 0.46056,0.12363 2.46404,0.47293 4.45193,0.77618 1.98788,0.30323 7.14999,1.10135 11.47165,1.77353 4.32166,0.67218 7.99539,1.16976 8.16333,1.10536 0.16794,-0.0644 0.40631,-0.3842 0.5302,-0.71003 0.45535,-1.19769 0.18009,-1.2815 -8.8961,-2.71147 -4.57156,-0.72026 -9.34674,-1.46476 -10.61176,-1.65468 -1.26502,-0.1899 -2.42591,-0.38463 -2.57969,-0.43253 -0.17057,-0.0531 0.0594,-0.39323 0.58963,-0.8723 1.8865,-1.70433 2.23885,-3.80326 1.11673,-6.64817 l -0.63872,-1.61954 5.41827,-10.86652 c 2.97991,-5.97645 5.9758,-12.05105 6.658,-13.49892 l 1.24075,-2.63239 2.12338,-0.63769 c 7.18248,-2.1578 12.35739,-8.90375 12.35739,-16.10858 0,-1.41522 -0.15677,-2.45719 -0.6165,-4.09484 l -0.6165,-2.19676 3.39565,-3.26285 c 3.7739,-3.62662 6.55153,-6.83426 7.36958,-8.51008 0.76902,-1.57538 0.87945,-2.79837 0.43408,-4.80022 -0.20753,-0.93281 -0.34135,-1.7262 -0.29765,-1.7632 0.0437,-0.037 2.74053,0.35987 5.99343,0.8816 12.46233,1.99878 15.81911,2.53896 17.23099,2.77347 l 1.45934,0.24236 -0.43511,1.10846 c -0.23925,0.60982 -0.91042,2.24272 -1.49139,3.62821 -0.58097,1.38549 -2.36093,5.67333 -3.95531,9.52861 -1.59438,3.85529 -3.62506,8.71264 -4.5129,10.79418 -0.88783,2.08154 -1.61437,3.82304 -1.61437,3.87004 0,0.047 -1.03319,2.50535 -2.29599,5.46324 -1.2628,2.95788 -2.62926,6.19462 -3.03651,7.19232 -0.95556,2.34104 -5.97602,14.36457 -7.48016,17.91415 -3.80104,8.97005 -5.46527,12.94102 -6.58616,15.71687 -1.4317,3.54555 -1.09343,3.31206 -4.03955,2.79312 -2.26909,-0.39974 -2.08724,-0.40098 -2.50372,0.0155 -0.4269,0.42684 -0.44664,1.26934 -0.0377,1.60869 0.32776,0.27203 4.82195,1.11007 5.96656,1.11207 0.56138,0.001 0.74763,-0.12825 1.01957,-0.71003 0.39153,-0.8376 3.27585,-7.68456 5.14439,-12.21218 0.72095,-1.74691 2.22183,-5.34486 3.33572,-7.99537 3.52954,-8.39858 3.76411,-8.9601 4.17597,-9.99836 0.2219,-0.5594 1.01134,-2.43234 1.7539,-4.16202 0.74256,-1.72967 1.67127,-3.93355 2.06395,-4.89738 0.39269,-0.96381 1.52805,-3.6746 2.52285,-6.02392 2.90042,-6.84959 7.38413,-17.58319 10.84274,-25.95707 0.99521,-2.40955 2.31689,-5.60067 2.93729,-7.09104 1.01801,-2.44556 1.09831,-2.75505 0.82218,-3.17603 -0.3271,-0.4987 -1.19566,-0.6569 -18.21956,-3.31195 -3.49386,-0.54489 -7.13174,-1.11348 -8.08427,-1.264 l -1.73219,-0.27389 -0.37155,-1.09399 c -0.77063,-2.26775 -0.86058,-2.04374 0.80408,-2.00504 1.36013,0.0316 1.49641,-0.007 1.74615,-0.4992 0.52787,-1.03992 -0.5039,-1.7624 -2.52595,-1.7694 -0.55429,-0.002 -1.12983,-0.081 -1.27899,-0.1757 -0.20142,-0.12792 -0.91141,-1.95262 -0.93121,-2.39313 -0.007,-0.14685 4.59253,-2.32921 6.38049,-3.02772 2.48292,-0.97002 3.97486,-1.87806 4.3155,-2.62568 0.13972,-0.30666 0.25373,-1.08264 0.25373,-1.72445 0,-2.827941 -1.75683,-5.164539 -3.88296,-5.164539 -0.87158,0 -2.03849,0.522019 -4.65967,2.084627 -0.66262,0.39503 -2.82922,1.611402 -4.81417,2.703192 l -3.60857,1.98489 -0.57774,-0.92759 c -0.74931,-1.20386 -1.96325,-2.25989 -2.81223,-2.44636 -0.82971,-0.182237 -2.10518,0.22318 -5.53765,1.76165 -1.41031,0.63212 -3.34262,1.40905 -4.29431,1.72599 -2.66223,0.88661 -2.57022,0.74952 -2.50372,3.72691 0.064,2.86744 0.63945,3.52363 -0.92346,4.65656 -1.03907,-0.58583 -2.51694,-1.33629 -3.4923,-0.7829 -0.70306,0.3989 -1.01422,0.68669 -1.1808,2.03915 -0.11037,0.89618 -0.0438,1.86462 -0.22169,1.92392 -1.40886,0.46961 -4.86276,4.44659 -4.86276,5.52059 0,1.10033 0.57427,1.36287 3.26389,1.49035 1.34904,0.0639 2.5005,0.16369 2.5585,0.22169 0.19188,0.19188 2.93987,7.6345 2.93987,7.96231 0,0.17681 -0.1726,0.38081 -0.38344,0.45371 -4.5663,1.5775 -7.64568,3.72577 -10.10171,7.0466 -2.34929,3.17652 -3.32989,6.02975 -3.32589,9.67435 0.003,2.60954 0.36393,4.27641 1.34255,6.2022 l 0.65629,1.2914 -0.6041,0.7984 c -3.13588,4.14403 -13.8356,16.46049 -14.2999,16.46049 -0.10535,0 -0.81434,-0.15909 -1.5751,-0.35398 -1.69601,-0.4345 -3.61194,-0.30285 -4.67,0.32143 l -0.75706,0.447 -2.83652,-2.99982 c -1.560176,-1.65 -3.03464,-3.25249 -3.276281,-3.56051 l -0.43925,-0.55965 0.771013,-1.63039 c 0.424078,-0.89676 1.389618,-3.01071 2.145605,-4.69739 0.755983,-1.68669 2.581533,-5.72795 4.057113,-8.98085 1.47559,-3.2529 3.7444,-8.28046 5.04156,-11.17193 1.29715,-2.89146 3.3676,-7.47519 4.60127,-10.18594 1.23365,-2.71075 3.00856,-6.65337 3.94394,-8.76174 3.34209,-7.53307 3.06595,-7.01029 3.69693,-7.00629 0.31337,0.002 2.78763,0.3809 5.49838,0.84233 4.42347,0.75297 4.97955,0.806 5.42189,0.51883 0.71724,-0.46565 0.67559,-1.5249 -0.0708,-1.80867 -0.86932,-0.33052 -11.46216,-1.99717 -12.21838,-1.92237 -0.73918,0.0731 -0.34672,-0.68421 -4.62969,8.93796 -2.24696,5.04806 -5.40767,12.08457 -6.24819,13.90974 -0.38838,0.84334 -1.56989,3.45551 -2.62517,5.80482 -1.05529,2.34931 -3.09972,6.88372 -4.54339,10.07638 -1.443663,3.19266 -2.823864,6.24813 -3.066995,6.79029 -2.19128,4.88621 -3.402147,7.56605 -3.439067,7.60935 -0.05916,0.0694 -7.35836,-7.93782 -8.188131,-8.9824 l -0.65629,-0.82579 2.688724,-5.63634 c 1.478618,-3.10001 4.141334,-8.6425 5.917469,-12.31708 1.776126,-3.67457 3.528087,-7.32182 3.893302,-8.10493 3.226238,-6.91779 3.909628,-8.16094 5.159378,-9.39116 0.68878,-0.67802 1.64569,-1.4263 2.12648,-1.66295 2.63534,-1.29714 3.99411,-2.47292 5.58881,-4.83536 2.17102,-3.21623 4.71973,-4.92063 7.35872,-4.92063 0.66767,0 4.82558,0.60192 9.24027,1.33738 5.16251,0.86005 8.13848,1.26662 8.34005,1.13947 0.5611,-0.35393 0.696,-1.09983 0.28939,-1.60197 -0.32314,-0.39906 -1.40563,-0.63404 -8.05739,-1.74821 -9.88029,-1.65497 -9.98029,-1.66525 -11.68972,-1.22732 -2.89826,0.7425 -5.24667,2.57815 -7.49205,5.85649 -1.4068,2.05399 -2.38233,2.89944 -4.78524,4.14652 -0.82846,0.42996 -1.96271,1.29075 -2.7125,2.05879 -1.12951,1.15701 -1.58243,1.92394 -3.669022,6.20944 -1.30926,2.689 -2.380216,4.92123 -2.380216,4.96093 0,0.0397 -0.876477,1.88139 -1.947168,4.09226 -4.413964,9.11434 -6.359792,13.18423 -7.914246,16.553 -0.901508,1.95371 -1.690728,3.55547 -1.753898,3.55947 -0.380441,0.0243 -4.279838,-6.39099 -5.920569,-9.74049 -4.105874,-8.382 -5.069327,-11.87865 -4.349088,-15.78612 0.531756,-2.8849 3.77004,-10.4304 6.038391,-14.07097 0.961175,-1.54264 1.013264,-1.58781 1.466577,-1.26814 1.482765,1.04562 5.506687,3.49461 6.822323,4.1522 2.359055,1.17913 3.741189,1.56397 5.586222,1.55597 2.762685,-0.0121 3.672713,-0.71219 5.472534,-4.21111 0.511821,-0.99499 1.23938,-2.05972 1.61696,-2.36574 1.64826,-1.3359 1.725,-1.4487 1.62005,-2.38746 -0.0892,-0.79765 -0.0318,-0.92931 0.57826,-1.32756 0.53512,-0.34933 0.74641,-0.71701 1.00666,-1.75235 l 0.32918,-1.31052 2.34869,-0.57309 c 2.48091,-0.60548 3.33954,-1.01416 3.55431,-1.69085 0.0722,-0.22738 -0.36376,-2.412814 -0.96894,-4.856551 -1.40235,-5.662705 -1.41085,-6.235435 -0.13384,-9.480042 1.14051,-2.897757 1.36116,-3.703175 1.5658,-5.716963 0.14547,-1.431539 0.21027,-1.568334 1.27485,-2.693893 4.45202,-4.706978 5.01111,-11.241801 1.42111,-16.609322 -1.20127,-1.796041 -3.87673,-4.439478 -5.84771,-5.777942 -1.77081,-1.202537 -4.89323,-2.747491 -6.76134,-3.345532 -1.260475,-0.403516 -1.744575,-0.719194 -3.133662,-2.042769 -2.165756,-2.063618 -4.103795,-3.411392 -6.604248,-4.593519 -3.778975,-1.786572 -6.661913,-2.556421 -11.138855,-2.972945 -1.036019,-0.09639 -2.085897,-0.140875 -3.145028,-0.134875 z m 0.19637,2.41484 c 2.455586,0.0017 4.900553,0.143918 6.189287,0.42633 5.183652,1.135942 9.410478,3.330037 13.136666,6.819222 1.571409,1.471468 2.0062,1.75404 3.286104,2.137337 1.789466,0.535901 4.455226,1.845939 6.478156,3.183269 3.07168,2.030651 5.48804,4.766488 6.66368,7.544242 0.51517,1.21722 0.58491,1.668265 0.58291,3.790983 -0.002,1.918258 -0.0941,2.637572 -0.45217,3.526917 -0.43721,1.085834 -2.03298,3.68244 -2.17558,3.539835 -0.039,-0.03903 0.0362,-0.4943 0.16743,-1.011308 0.20904,-0.823554 0.18468,-1.012367 -0.19843,-1.526005 -0.91676,-1.229088 -1.58135,-0.865084 -2.25723,1.236101 -0.25892,0.804916 -0.67797,1.808168 -0.93069,2.229838 -1.79071,2.987787 -5.15394,5.416666 -8.787065,6.345865 -1.598729,0.40888 -6.254724,0.970154 -6.447668,0.777214 -0.05801,-0.05802 0.202138,-0.682286 0.577742,-1.386995 0.917446,-1.721309 1.353406,-3.509177 1.353406,-5.547465 0,-1.765685 -0.274014,-2.382666 -1.055749,-2.375566 -0.825374,0.0075 -1.456217,1.003064 -1.244886,1.965255 0.07595,0.345799 0.03388,1.20244 -0.09353,1.903759 -0.657598,3.619507 -3.861301,7.50139 -7.704439,9.335348 -2.461526,1.174669 -3.986561,1.564595 -7.884273,2.014864 -4.1693,0.48165 -5.72882,0.972597 -7.491533,2.357996 -0.457352,0.359449 -0.901186,0.583894 -0.985986,0.499194 -0.0848,-0.08473 -0.153996,-1.501003 -0.153996,-3.147611 0,-2.711588 0.04659,-3.072345 0.492993,-3.827674 0.64964,-1.099159 0.632478,-1.802793 -0.05478,-2.253092 -0.49556,-0.32476 -0.59653,-0.327004 -1.062467,-0.0217 -0.655289,0.429359 -1.137221,1.447938 -1.585433,3.352767 -0.446789,1.898778 -0.324606,4.272041 0.363285,7.067268 l 0.505396,2.054655 -0.643889,1.230416 c -1.467648,2.804254 -4.671626,5.113144 -8.091495,5.831164 -0.84334,0.17706 -2.321764,0.31386 -3.285588,0.30386 -5.911358,-0.0614 -10.025625,-3.02268 -10.871688,-7.825877 -0.225249,-1.278768 -0.209789,-1.40934 0.221692,-1.868619 0.570037,-0.60678 0.598482,-1.480629 0.06356,-1.964738 -0.548198,-0.4961 -0.65141,-0.473176 -1.900142,0.422713 -2.577897,1.849478 -5.351452,2.762067 -8.323523,2.739368 -5.41872,-0.04136 -9.526742,-3.246721 -10.974007,-8.562785 -0.552479,-2.029378 -0.494582,-6.486953 0.115238,-8.87181 0.720213,-2.816588 1.987479,-5.077289 4.109827,-7.331852 3.252177,-3.454769 6.641927,-5.270367 10.472745,-5.60896 4.444414,-0.392828 8.998197,2.431519 11.303703,7.010941 0.540318,1.073232 1.140336,2.050982 1.333769,2.172994 0.50691,0.31975 1.491382,-0.369881 1.491382,-1.044897 0,-1.063859 -1.921025,-4.409613 -3.50728,-6.108155 -1.708386,-1.829321 -1.765051,-2.031912 -1.102775,-3.956864 1.818191,-5.284669 6.77043,-10.085681 14.138672,-13.70769 2.815762,-1.384147 6.94643,-2.814821 9.966834,-3.451986 1.330128,-0.280609 3.796229,-0.419762 6.251814,-0.418062 z M 56.828573,70.413273 c -0.309726,-0.03406 -0.622892,0.06425 -0.824756,0.307475 -0.147327,0.177522 -0.456299,1.434023 -0.68678,2.792594 -0.703117,4.144599 -1.969339,7.245829 -4.024561,9.857797 -0.898064,1.141338 -1.045982,1.242608 -1.644344,1.122928 -0.828338,-0.165659 -1.192407,0.129985 -1.908927,1.551844 -0.307378,0.609959 -0.989621,1.777694 -1.516187,2.594673 -1.029578,1.597399 -1.224023,2.608875 -0.574125,2.987415 0.210835,0.12279 0.501879,0.22696 0.646472,0.22996 0.347514,0.0088 5.813314,-5.586242 7.013009,-7.17889 2.208716,-2.932147 3.665967,-6.654246 4.317049,-11.025684 0.298421,-2.003826 0.299267,-2.307344 0.0067,-2.753837 -0.187422,-0.286037 -0.493843,-0.452215 -0.803568,-0.486275 z M 50.749874,75.6698 c -0.2558,0.003 -0.502969,0.118529 -0.691948,0.346232 -0.164769,0.198537 -0.366671,1.110346 -0.448551,2.026233 -0.08188,0.915879 -0.218971,2.230262 -0.304891,2.920752 -0.110534,0.888309 -0.07598,1.352627 0.119373,1.588017 0.409043,0.492859 1.259565,0.408732 1.619539,-0.160197 0.788408,-1.246069 1.104377,-5.737065 0.449585,-6.391858 -0.222893,-0.222892 -0.487308,-0.332166 -0.743107,-0.329179 z m 57.701386,5.268412 c 0.21566,0.21566 -0.61735,3.333837 -1.39733,5.231205 -1.24661,3.032367 -1.47967,4.392643 -1.14773,6.688481 0.14863,1.027919 0.65789,3.218795 1.13223,4.868953 0.47434,1.650149 0.79166,3.065429 0.70486,3.145029 -0.0868,0.0796 -0.96164,0.30441 -1.94406,0.49971 -2.556,0.50812 -3.33044,0.87973 -3.7052,1.77664 -0.17245,0.41274 -0.31316,1.04758 -0.31316,1.41128 0,0.54359 -0.13153,0.7163 -0.73743,0.96945 -0.82293,0.34385 -1.288997,1.29914 -1.113622,2.28255 0.08884,0.49815 -0.03374,0.68703 -0.777731,1.19476 -0.716752,0.48914 -1.089261,1.03307 -1.972489,2.88251 -0.853291,1.78677 -1.25358,2.38193 -1.8495,2.75022 -0.807052,0.49884 -1.853919,0.6948 -2.740401,0.51314 -1.715208,-0.3515 -4.920095,-2.09065 -9.428365,-5.11648 -7.343016,-4.92843 -10.268998,-9.17405 -10.042798,-14.57172 0.04174,-0.995929 0.125249,-1.855044 0.185519,-1.909444 0.06024,-0.0544 1.54186,-0.258015 3.292305,-0.452685 5.624877,-0.62552 8.775507,-1.776809 12.009603,-4.387846 l 1.709973,-1.380794 2.939356,-0.126608 c 3.386289,-0.14616 5.730561,-0.58201 8.15506,-1.515669 1.96577,-0.75701 4.39304,-2.323422 5.90661,-3.812171 0.5752,-0.565759 1.0857,-0.989111 1.1343,-0.940511 z M 70.4696,94.931673 c 0.07762,0 0.206478,0.849441 0.286288,1.88774 0.314655,4.093557 1.849551,7.078337 5.537646,10.769887 l 2.469617,2.4722 -1.062467,1.79937 c -2.8039,4.7491 -5.59678,11.402 -6.143811,14.63425 -0.130636,0.77191 -0.318329,1.89617 -0.417029,2.49856 -0.121553,0.74139 -0.23044,0.97855 -0.337447,0.73277 -0.323753,-0.74357 -11.576296,-10.24001 -16.555579,-13.97176 -1.024055,-0.76749 -1.898574,-1.42509 -1.943034,-1.46089 -0.04443,-0.0358 0.251452,-0.45289 0.657324,-0.92708 1.055946,-1.23366 2.297457,-3.40059 2.987932,-5.21415 l 0.595829,-1.56424 1.753381,-0.39998 c 2.74371,-0.62594 4.904468,-1.78586 6.812504,-3.65714 0.897965,-0.88067 1.679635,-1.55478 1.736845,-1.49758 0.235474,0.23547 0.08114,3.09609 -0.222208,4.11757 -0.489931,1.64979 -1.395687,2.71853 -3.449402,4.07107 -2.898702,1.90906 -3.891236,3.4574 -3.891236,6.07095 0,1.41034 0.427601,2.20038 1.190625,2.20038 0.785884,0 1.087999,-0.56117 1.103809,-2.05052 0.01929,-1.81406 0.526866,-2.64467 2.311487,-3.78065 3.261955,-2.07633 4.754698,-4.10565 5.269962,-7.16597 0.264293,-1.56967 0.197521,-2.51705 -0.399458,-5.679753 l -0.362252,-1.919262 0.964799,-0.982886 c 0.530638,-0.54067 1.028306,-0.982886 1.105875,-0.982886 z m 96.89589,3.985803 c 0.0785,0.0059 0.0983,0.05027 0.0434,0.13901 -0.2524,0.40841 0.13326,2.015884 0.67541,2.814814 0.29053,0.42811 0.49912,0.80142 0.46302,0.82992 -0.0361,0.0285 -0.51799,0.31266 -1.07073,0.63149 -1.25575,0.72437 -1.73622,0.72824 -2.40192,0.0196 -0.42422,-0.45157 -0.52724,-0.79697 -0.53124,-1.78491 -0.005,-1.21899 1.2e-4,-1.22855 0.98082,-1.825208 0.84377,-0.513614 1.60571,-0.84234 1.84123,-0.824756 z m -5.36659,2.789494 0.22944,0.85369 c 0.12643,0.4695 0.47255,1.2112 0.76895,1.64797 l 0.53898,0.79375 -1.14153,0.52968 c -1.20553,0.5591 -9.22986,4.72541 -21.21678,10.61905 l -0.84441,2.98477 c 0,0.17271 0.30616,0.66244 0.68006,1.08831 0.9762,1.11182 1.82759,1.06417 3.90984,-0.21963 3.10565,-1.91476 4.61006,-3.55419 4.61006,-5.02243 0,-0.49718 0.32106,-0.71707 2.97243,-2.03502 3.45689,-1.71836 3.11786,-1.82146 4.21886,1.28468 0.40104,1.13139 0.84808,2.3033 0.99322,2.60449 0.37234,0.77264 1.08223,0.81087 1.65055,0.0884 0.25655,-0.32615 0.49843,-0.55338 0.53743,-0.50488 0.48483,0.60371 1.89539,5.79037 1.89239,6.95771 -0.001,0.4386 -0.23295,1.29 -0.51521,1.89239 -0.6787,1.44844 -4.93463,6.05555 -8.80618,9.53275 -5.79066,5.20083 -4.62891,3.45277 -10.84689,16.31529 -3.02854,6.26484 -5.95142,12.32699 -6.49521,13.47153 -0.77972,1.64111 -8.69355,17.51117 -10.0769,20.20755 -0.16998,0.33131 -0.37574,0.59773 -0.45734,0.59273 -0.0815,-0.005 -0.51726,-0.57183 -0.9679,-1.25936 -1.1159,-1.70245 -4.11273,-5.03687 -5.94744,-6.61716 -0.83042,-0.71526 -2.3797,-1.87034 -3.44268,-2.56677 -1.06299,-0.69643 -1.9338,-1.3647 -1.9358,-1.48518 -0.002,-0.12047 0.4631,-0.71334 1.03301,-1.31724 3.84503,-4.07431 10.06365,-11.4157 13.91336,-16.42587 0.92573,-1.20478 2.43557,-3.16755 3.35536,-4.36149 3.84726,-4.99393 9.93164,-13.73064 10.37559,-14.89831 0.21582,-0.56765 -0.0797,-1.49181 -3.12849,-9.78442 -0.91202,-2.48067 -1.72114,-4.76182 -1.79834,-5.06946 l -2.23914,-2.12441 -0.92966,0.40669 -0.33021,-0.6382 c -0.18144,-0.35087 -0.3297,-0.78356 -0.3297,-0.9617 0,-0.22081 2.76669,-0.27184 2.61255,-2.29166 -0.0817,-1.0707 -0.91107,-2.43622 0.0916,-2.94945 1.33459,-0.68313 2.15272,1.83038 2.59778,1.72598 0.4689,-0.10999 6.88043,-3.66744 11.56528,-6.03364 2.8622,-1.44563 11.73555,-6.21511 12.31088,-6.61717 z m -11.95845,0.77101 c 0.60297,-0.0775 0.81005,0.2105 1.22732,0.78652 0.37162,0.51301 0.67541,1.04418 0.67541,1.18029 0,0.34328 -5.14604,2.91688 -6.35258,3.17706 -0.54214,0.1169 -1.55259,0.2736 -2.24534,0.3483 l -1.25936,0.13591 v 0.83716 c 0,0.56116 -0.11393,0.88087 -0.34623,0.96997 -0.19057,0.0731 -0.42297,0.13281 -0.51677,0.13281 -0.18933,0 -0.44655,-1.81765 -0.44855,-3.17604 l -0.002,-0.87643 1.34513,-0.39532 c 0.73978,-0.21741 2.68304,-0.98801 4.3186,-1.71256 2.00233,-0.88702 3.00147,-1.33016 3.60443,-1.40767 z m -105.926347,0.75189 1.219564,0.8537 c 1.031606,0.72264 2.127815,1.24043 3.628719,1.71307 0.174283,0.0549 -0.102949,0.30759 -0.657324,0.59997 -0.527154,0.27802 -1.189025,0.84355 -1.470711,1.25625 -0.651274,0.95417 -0.532368,2.15242 0.403076,4.0628 0.361207,0.73765 0.656807,1.45221 0.656807,1.58802 0,0.31053 -1.833464,0.29924 -2.738334,-0.017 -1.09932,-0.38427 -1.949838,-1.15797 -2.632397,-2.39314 -0.546999,-0.98986 -0.649987,-1.41913 -0.649573,-2.7094 5.39e-4,-1.66572 0.450838,-2.83651 1.627807,-4.22971 z m 9.092985,3.91346 c 0.366232,-0.0165 0.464833,0.11328 0.421163,0.38344 -0.137093,0.84815 -1.077836,2.64112 -1.982308,3.77858 -0.502945,0.63252 -1.008725,1.15032 -1.123962,1.15032 -0.279253,0 -1.484317,-2.1295 -1.661398,-2.93574 -0.181915,-0.82828 0.389801,-1.29258 2.319239,-1.88309 1.027006,-0.31432 1.661035,-0.47706 2.027266,-0.49351 z m 104.704722,3.43235 c 0.0672,-0.0672 0.33239,0.44058 0.58963,1.1281 0.63465,1.69625 0.47148,1.97293 -0.18656,0.31626 -0.28881,-0.72712 -0.47017,-1.37726 -0.40307,-1.44436 z m 11.04842,2.37763 c -0.57121,0.0442 -0.76355,0.26046 -0.90847,0.6749 -0.18585,0.53148 -0.14642,0.68419 0.262,1.01492 0.2643,0.21401 0.95247,0.45584 1.5291,0.53744 0.57662,0.0816 2.0831,0.33349 3.34812,0.56017 1.26502,0.22669 4.81364,0.81853 7.88582,1.31516 17.54792,2.83668 17.07635,2.7269 18.21646,4.24574 0.85541,1.13958 0.70943,2.4197 -0.61495,5.39192 -0.61736,1.38549 -2.13215,4.93412 -3.3662,7.88582 -1.23404,2.95171 -2.93063,6.98497 -3.77031,8.96276 -0.83969,1.97778 -1.94789,4.63925 -2.4629,5.91437 -0.51503,1.27511 -2.24095,5.47283 -3.83491,9.32811 -3.61221,8.73678 -6.15366,14.92989 -7.23677,17.63355 -0.45852,1.14454 -1.63971,4.00327 -2.62464,6.35259 -1.64963,3.93476 -3.20819,7.72439 -7.1174,17.30488 -2.51633,6.16691 -2.93601,6.85995 -4.65915,7.69411 -0.84169,0.40743 -1.22966,0.45446 -2.94659,0.35656 -1.7351,-0.0989 -2.02793,-0.0624 -2.38951,0.29921 -0.22665,0.22665 -0.41238,0.49213 -0.41238,0.58963 0,0.42707 0.62837,0.97002 1.32498,1.14515 0.41579,0.10449 1.64318,0.16376 2.72748,0.13126 1.62333,-0.0486 2.16855,-0.16066 3.08664,-0.63304 1.90034,-0.97776 2.65003,-2.05307 4.26072,-6.10867 0.49572,-1.24818 1.67615,-4.14205 2.62309,-6.43113 2.09411,-5.06213 5.87982,-14.26314 7.88635,-19.16731 0.81333,-1.98789 2.53887,-6.17708 3.83439,-9.30951 1.29551,-3.13242 3.26504,-7.91289 4.37699,-10.62364 3.34082,-8.1444 4.87322,-11.80874 10.35182,-24.75301 3.38455,-7.99664 3.776,-9.04511 3.776,-10.11928 0,-1.48703 -0.58915,-2.92273 -1.61075,-3.92689 -1.25965,-1.23811 -2.11714,-1.62218 -4.52273,-2.02572 -2.60896,-0.43766 -14.74568,-2.41607 -18.40042,-2.9993 -1.50598,-0.24033 -3.94985,-0.63705 -5.43068,-0.88211 -1.65993,-0.27469 -2.60999,-0.40286 -3.1812,-0.35864 z m -23.45645,3.50418 c 0.0574,0.0574 -0.36755,0.49431 -0.94465,0.971 -0.57708,0.4767 -1.15862,0.93029 -1.29242,1.00769 -0.2754,0.15939 -0.52348,-0.0211 -0.52348,-0.38085 0,-0.26528 2.59251,-1.76588 2.76055,-1.59784 z m -96.932068,1.28984 c -0.140733,-0.0433 -0.296166,-0.0102 -0.527616,0.0796 -0.961681,0.37327 -7.271113,8.52083 -10.930082,14.11438 -7.33727,11.21667 -10.763368,23.68122 -10.374044,37.74085 0.180393,6.51452 0.80764,11.70796 2.402437,19.87941 0.746077,3.82272 1.16437,6.86488 1.631425,11.87317 0.245111,2.62831 0.512142,4.44896 0.683163,4.65502 0.389845,0.46973 1.01922,0.42255 1.558561,-0.11679 0.519313,-0.51931 0.512279,-0.73987 -0.255282,-7.64966 -0.447947,-4.03264 -0.777162,-6.16544 -2.027783,-13.14287 -1.431692,-7.98766 -1.567978,-9.4853 -1.562179,-17.19533 0.0042,-5.58829 0.08492,-7.54309 0.397392,-9.63869 1.134763,-7.61025 3.651527,-15.12168 7.139616,-21.3093 1.951667,-3.46212 4.112911,-6.54636 10.393681,-14.83372 1.278297,-1.68668 2.324785,-3.17934 2.325439,-3.31659 6.62e-4,-0.13725 -0.185583,-0.48024 -0.413928,-0.76223 -0.173774,-0.2146 -0.300067,-0.33391 -0.4408,-0.37724 z m 76.033598,1.95802 c -0.16678,0.007 -0.32648,0.0494 -0.46043,0.13333 -0.32527,0.20375 -4.30886,9.25181 -4.87154,11.06496 -0.19775,0.63721 -0.19253,0.8873 0.0253,1.1498 0.45121,0.54367 1.47386,0.41985 1.89963,-0.22996 0.20376,-0.31097 1.34546,-2.89388 2.53679,-5.74022 1.47675,-3.52826 2.12611,-5.33385 2.04071,-5.67407 -0.10793,-0.43004 -0.67012,-0.725 -1.17048,-0.70384 z m 5.65186,0.0884 c 0.12045,0.0745 0.2191,0.2282 0.2191,0.34158 0,0.11341 -0.0986,0.20619 -0.2191,0.20619 -0.12045,0 -0.21911,-0.15375 -0.21911,-0.34158 0,-0.18782 0.0986,-0.28059 0.21911,-0.20619 z m 35.66242,6.66626 c -0.48436,-0.0297 -0.7733,-0.0171 -0.87385,0.0367 -0.21568,0.11543 -0.45764,0.47002 -0.53744,0.78807 -0.23589,0.93986 0.41601,1.25921 3.45974,1.69447 1.48724,0.21267 4.57666,0.70926 6.86573,1.10381 5.06782,0.87352 4.72665,0.8457 5.31802,0.43149 0.86529,-0.60608 0.37275,-2.06777 -0.69711,-2.0686 -0.25241,-2.6e-4 -1.93732,-0.25159 -3.74447,-0.55811 -5.12941,-0.87001 -8.33755,-1.33864 -9.79062,-1.42782 z M 53.138875,132.2085 c -3.25172,0.15785 -6.308694,1.42475 -8.658386,3.77599 -1.614974,1.61603 -2.830315,3.67046 -3.079399,5.20537 -0.109192,0.67288 -0.04857,0.84721 0.394292,1.1374 0.896218,0.58721 1.351771,0.25605 2.226737,-1.61747 1.464444,-3.13573 4.201715,-5.3204 7.557678,-6.03168 1.867072,-0.39578 2.523872,-0.39319 4.593002,0.0181 3.397375,0.6753 7.149617,3.12424 10.519771,6.86573 1.162606,1.29071 1.747887,1.77974 2.130619,1.77974 0.655273,0 1.290108,-0.88966 1.088306,-1.52549 -0.245607,-0.77383 -5.17454,-5.54974 -6.944796,-6.72931 -3.129469,-2.08525 -6.576103,-3.03623 -9.827824,-2.87837 z m 83.749415,0.80822 c 0.78412,-0.17549 0.93421,0.21665 1.40559,1.71204 l 0.36277,1.15083 -1.27744,1.92391 c -1.81198,2.72959 -5.69691,8.17166 -8.48837,11.89075 -1.31121,1.74692 -2.46143,3.20395 -2.55643,3.23805 -0.095,0.0341 -0.39937,-0.60651 -0.67645,-1.42369 -0.6829,-2.01397 -0.82704,-4.94775 -0.33589,-6.83369 1.29503,-4.97268 5.39924,-9.38032 10.53527,-11.31352 0.43766,-0.16474 0.76957,-0.28619 1.03095,-0.34468 z m -18.37511,2.50889 c -0.17439,-0.024 -0.35276,-0.0143 -0.51832,0.0382 -0.44255,0.14046 -0.31153,-0.13106 -3.20497,6.64507 -2.23592,5.23626 -2.54802,6.24387 -2.00194,6.46421 0.52778,0.21297 1.42708,0.14204 1.64279,-0.1292 0.44453,-0.55888 5.09323,-11.6401 5.09323,-12.14086 0,-0.43017 -0.48762,-0.80547 -1.01079,-0.87746 z m 54.20496,0.84646 c -0.70189,0.0679 -0.74814,0.13766 -1.78025,2.69802 -0.58279,1.44574 -1.44788,3.53964 -1.92237,4.65295 -0.9964,2.33786 -1.04549,2.74924 -0.36948,3.07526 0.77293,0.37277 1.2231,0.30767 1.56734,-0.22582 0.44058,-0.68284 3.62344,-8.37568 3.77135,-9.11521 0.15488,-0.7744 -0.31567,-1.1772 -1.26659,-1.0852 z m -22.19761,3.4649 c 0.46574,0 0.98443,2.26341 0.98443,4.29483 0,5.5896 -3.29901,10.63089 -8.6682,13.24467 -1.71121,0.833 -2.06499,0.96417 -2.06499,0.7674 0,-0.0512 0.70333,-1.50497 1.56321,-3.23082 0.85987,-1.72585 2.73739,-5.55274 4.17236,-8.50387 2.4236,-4.98434 3.3936,-6.57221 4.01319,-6.57221 z m 16.81189,10.22315 c -0.15945,0.0224 -0.29826,0.10324 -0.46767,0.25012 -0.55202,0.47853 -5.2834,11.52306 -5.2834,12.33309 0,0.21504 0.1726,0.49165 0.38344,0.61444 0.63518,0.36995 1.29993,0.26559 1.63349,-0.25632 0.17325,-0.27108 1.03568,-2.21798 1.91616,-4.32635 0.88049,-2.10836 1.98299,-4.68584 2.44998,-5.72782 0.467,-1.04197 0.79117,-2.04532 0.72037,-2.22983 -0.0708,-0.1845 -0.41333,-0.43478 -0.76119,-0.55604 -0.25142,-0.0876 -0.43173,-0.12373 -0.59118,-0.10129 z m -57.97889,7.53804 c -0.33037,-0.0152 -0.6487,0.1399 -0.87901,0.46871 -0.43437,0.61983 -0.43372,1.14189 0.003,1.5782 h 5.2e-4 c 0.3614,0.36139 1.13051,0.44977 1.53944,0.17673 0.13257,-0.0885 0.35248,-0.37225 0.48834,-0.63045 0.20199,-0.38387 0.16522,-0.57332 -0.20206,-1.04025 -0.277,-0.35217 -0.61944,-0.53773 -0.94981,-0.55294 z m -2.32595,6.11539 c -0.73174,0 -0.79106,0.0933 -2.2872,3.59616 -1.02923,2.40967 -1.17541,3.07853 -0.71469,3.27319 0.1506,0.064 0.6009,0.0969 1.00046,0.0734 0.70785,-0.0416 0.75447,-0.10758 1.82159,-2.56212 1.47375,-3.38982 1.54708,-3.64951 1.14463,-4.05195 -0.18086,-0.18086 -0.61506,-0.32866 -0.96479,-0.32866 z m -56.769149,1.33997 c -0.429189,-0.0193 -0.717522,0.15085 -0.950846,0.50695 -0.267861,0.40881 -0.294174,0.63597 -0.112655,0.97513 0.241442,0.45115 2.856052,1.78359 6.585128,3.35587 1.144533,0.48258 2.820226,1.20138 3.723803,1.59732 2.044344,0.89581 2.720998,0.94565 3.186886,0.23461 0.261089,-0.39848 0.291718,-0.63985 0.121956,-0.95705 -0.262694,-0.49086 -0.386942,-0.55243 -5.561934,-2.7621 -2.142649,-0.91491 -4.480812,-1.95922 -5.196065,-2.32028 -0.797229,-0.40244 -1.367084,-0.61115 -1.796273,-0.63045 z m 110.093539,1.30638 c -0.17358,-0.002 -0.33825,0.0346 -0.47026,0.11782 -0.19919,0.12565 -1.36067,2.56212 -2.58123,5.41414 -1.22058,2.85202 -2.27028,5.2365 -2.33268,5.2989 -0.0624,0.0624 -0.74372,-0.0349 -1.51412,-0.21652 -1.78611,-0.42107 -2.4687,-0.41904 -3.92327,0.0129 -1.42549,0.42333 -2.4775,1.40558 -2.85513,2.66599 -0.37534,1.25279 0.10534,2.45609 1.64797,4.12688 0.65073,0.70479 1.16151,1.30345 1.13481,1.33015 -0.0267,0.0267 -0.68599,-0.0896 -1.46503,-0.25838 -0.77904,-0.16873 -3.32804,-0.61011 -5.66425,-0.98082 -4.03219,-0.63983 -4.26899,-0.65481 -4.66535,-0.29611 -0.572,0.51766 -0.43696,1.42324 0.26045,1.74718 0.3012,0.13989 3.1106,0.67265 6.24303,1.18391 3.13242,0.51126 5.73599,0.96372 5.78569,1.00562 0.0497,0.0419 -0.3406,1.07365 -0.86713,2.29237 -0.93466,2.16342 -0.94692,2.22312 -0.52813,2.52956 0.6328,0.46304 1.60767,0.28475 1.97921,-0.36225 0.17296,-0.30119 0.657,-1.31289 1.07538,-2.24793 l 0.76068,-1.70015 1.21285,0.14263 c 0.99324,0.11673 1.29171,0.0713 1.64744,-0.25064 0.94354,-0.85389 0.24155,-1.75278 -1.55494,-1.99109 -0.87504,-0.11608 -1.06748,-0.23561 -1.35754,-0.84387 -0.18586,-0.38976 -0.87112,-1.29069 -1.52239,-2.00195 -2.17538,-2.37571 -2.3515,-2.8995 -1.20974,-3.59565 0.9525,-0.58078 2.84601,-0.58676 3.88813,-0.0124 2.00105,1.10289 2.41242,1.08053 3.04478,-0.16536 1.18665,-2.33798 5.07528,-11.76205 5.01778,-12.16102 -0.0625,-0.43416 -0.66628,-0.77908 -1.18701,-0.78393 z m -54.64834,7.51427 c 1.77456,0.002 5.27621,1.5402 8.1132,3.64371 4.7992,3.55838 9.54787,9.38341 10.98692,13.47773 0.51742,1.474 0.51719,1.79117 -0.002,2.64273 h 5.2e-4 c -0.22859,0.37486 -0.71183,0.89269 -1.07435,1.15083 l -0.65939,0.46923 -1.41284,-2.68408 c -3.43725,-6.53116 -6.94202,-10.6182 -12.09797,-14.10663 -1.44572,-0.97817 -3.16622,-2.34736 -3.82302,-3.04271 -1.16868,-1.23728 -1.18305,-1.26824 -0.67903,-1.45469 0.17603,-0.0651 0.39452,-0.0965 0.64803,-0.0961 z m 25.44392,8.28373 c -0.60637,0.0511 -0.84325,0.20276 -1.07539,0.68937 -0.35159,0.73701 -0.21209,0.92926 0.97927,1.35392 1.17196,0.41774 1.33923,0.39864 1.96216,-0.22428 0.45312,-0.45313 0.50523,-0.62293 0.3054,-0.99632 -0.30799,-0.57547 -1.18106,-0.90609 -2.17144,-0.82269 z m -10.48153,20.23856 c -0.83692,0.0299 -0.80046,0.29762 -0.95188,0.70694 -0.2597,0.70203 0.39639,1.262 1.69705,1.44849 4.04057,0.57931 23.55537,3.58114 27.13685,4.17442 2.40956,0.39915 4.69426,0.73544 5.07721,0.74724 1.27349,0.0391 1.86261,-1.18831 0.87953,-1.83245 -0.47709,-0.3126 -3.09418,-0.75783 -17.45681,-2.96674 -11.16516,-1.71715 -14.98709,-2.32773 -16.38195,-2.2779 z"
       sodipodi:nodetypes="sssssssssssccccssssccssssssssscssssssssssssscccsssssssssscccccccscccssscsccsssssssscsssssssssssssscccsccscssssscccsssccsssscsscsccccssccsccssssscssssssssscscccsssssssssssssssssscssssscssssccccssscssssssssssssssccsssscsssssscsssssccsscccscsssscssssssssssssscssssssscscsccssssssssscsssssssssscssssccccssssscccscsssscccscsssscsssccsccssssccccccccccccssssssccsssssssssssssssccccssssscccsssccsssccssccccssssscsscccssssscsssssssssssssssssssssssscssssssssssssssscssscssssssssssssssssscscssssscssscsscssscsssssscscsssssssssccssssssccsscsccssssssssssssssscssssssssscccssssssscsssssssssssssssscssssssscsssssssssccssssssscsscsccccccsssccsssssssssscsss"
       inkscape:export-filename="noProjects.svg"
       inkscape:export-xdpi="96"
       inkscape:export-ydpi="96" /><path
       style="fill:#000000;fill-opacity:1;stroke:#6c757d;stroke-width:2.6;stroke-linecap:round;stroke-dasharray:none;stroke-dashoffset:101.59;stroke-opacity:1"
       d="m 138.07957,113.62393 3.35011,4.85344"
       id="path9"
       sodipodi:nodetypes="cc" /><path
       style="fill:#000000;fill-opacity:1;stroke:#6c757d;stroke-width:2.4;stroke-linecap:round;stroke-dasharray:none;stroke-dashoffset:101.59;stroke-opacity:1"
       d="m 133.64404,115.97174 1.27769,6.04625"
       id="path10"
       sodipodi:nodetypes="cc" /></g></svg>
